<svg xmlns="http://www.w3.org/2000/svg" viewBox="0 0 900 600" aria-labelledby="amsterdam-flag-title">
  <title id="amsterdam-flag-title">Flag of Amsterdam</title>
  <rect width="900" height="200" fill="#D90429"/>
  <rect y="200" width="900" height="200" fill="#000000"/>
  <rect y="400" width="900" height="200" fill="#D90429"/>
  
  <!-- Three Saint Andrew's crosses (XXX) -->
  <g fill="#000000" stroke="#000000" stroke-width="8">
    <!-- First X -->
    <g transform="translate(200, 300)">
      <rect x="-4" y="-60" width="8" height="120" transform="rotate(45)"/>
      <rect x="-4" y="-60" width="8" height="120" transform="rotate(-45)"/>
    </g>
    
    <!-- Second X -->
    <g transform="translate(450, 300)">
      <rect x="-4" y="-60" width="8" height="120" transform="rotate(45)"/>
      <rect x="-4" y="-60" width="8" height="120" transform="rotate(-45)"/>
    </g>
    
    <!-- Third X -->
    <g transform="translate(700, 300)">
      <rect x="-4" y="-60" width="8" height="120" transform="rotate(45)"/>
      <rect x="-4" y="-60" width="8" height="120" transform="rotate(-45)"/>
    </g>
  </g>
  
  <!-- White outlines for the crosses to make them stand out on black -->
  <g fill="none" stroke="#FFFFFF" stroke-width="2">
    <!-- First X outline -->
    <g transform="translate(200, 300)">
      <rect x="-4" y="-60" width="8" height="120" transform="rotate(45)"/>
      <rect x="-4" y="-60" width="8" height="120" transform="rotate(-45)"/>
    </g>
    
    <!-- Second X outline -->
    <g transform="translate(450, 300)">
      <rect x="-4" y="-60" width="8" height="120" transform="rotate(45)"/>
      <rect x="-4" y="-60" width="8" height="120" transform="rotate(-45)"/>
    </g>
    
    <!-- Third X outline -->
    <g transform="translate(700, 300)">
      <rect x="-4" y="-60" width="8" height="120" transform="rotate(45)"/>
      <rect x="-4" y="-60" width="8" height="120" transform="rotate(-45)"/>
    </g>
  </g>
</svg>
